<?xml version="1.0" encoding="utf-8"?>
<!-- Generator: Adobe Illustrator 27.3.1, SVG Export Plug-In . SVG Version: 6.00 Build 0)  -->
<svg version="1.1"
	 id="svg8997" xmlns:inkscape="http://www.inkscape.org/namespaces/inkscape" xmlns:sodipodi="http://sodipodi.sourceforge.net/DTD/sodipodi-0.dtd" xmlns:cc="http://creativecommons.org/ns#" xmlns:svg="http://www.w3.org/2000/svg" xmlns:rdf="http://www.w3.org/1999/02/22-rdf-syntax-ns#" xmlns:dc="http://purl.org/dc/elements/1.1/"
	 xmlns="http://www.w3.org/2000/svg" xmlns:xlink="http://www.w3.org/1999/xlink" x="0px" y="0px" viewBox="0 0 200 35"
	 style="enable-background:new 0 0 200 35;" xml:space="preserve">
<style type="text/css">
	.st0{fill:#FFFFFF;}
</style>
<path id="path7784" inkscape:connector-curvature="0" class="st0" d="M101.6,31.1h0.9V3.8h-0.9V31.1z"/>
<path id="path7796" inkscape:connector-curvature="0" class="st0" d="M46.2,19.2l2.2-4.8l2.1,4.8H46.2z M42.1,24.4h1.8l1.4-3.2h6.1
	l1.4,3.2h2l-6.4-14L42.1,24.4z M34.4,14.9L34.4,14.9c0-3-2.1-4.1-5.7-4.1h-4.1v13.6h1.9V12.5h2.2c2.8,0,3.8,0.5,3.8,2.4v0
	c0,1.9-1.1,2.4-3.8,2.4h-1.3l5.7,7h2.4c0,0-4.7-5.5-4.6-5.5C33.1,18.5,34.4,17.3,34.4,14.9 M3.5,17.6c0,4.1,2.8,6.8,7.2,6.8h4.9v-7
	h-1.9v5.3h-2.9c-3.7,0-5.4-2.1-5.4-5.1c0-3,1.7-5.1,5.4-5.1h4.8v-1.7h-4.9C6.3,10.8,3.5,13.5,3.5,17.6 M70.7,20.2l-9-9.8v13.9h1.8
	V15l9,9.8V10.9h-1.8V20.2z M84.7,22.7h-2.1V12.5h2.1c3.7,0,5.4,2.1,5.4,5.1C90.1,20.6,88.4,22.7,84.7,22.7 M84.8,10.8h-4.1v13.6h4.1
	c4.4,0,7.2-2.7,7.2-6.8C92.1,13.5,89.3,10.8,84.8,10.8"/>
<path id="path7800" inkscape:connector-curvature="0" class="st0" d="M152.2,19.2l2.5-5l2.5,5H152.2z M147.8,24.2h1.9l1.5-3.1h6.9
	l1.5,3.1h2l-6.9-14.1L147.8,24.2z M137.2,17.5l-4.5-7h-2.1l5.6,8.9v4.7h1.9v-4.8l5.5-8.9h-2.1L137.2,17.5z M184.5,10.6v1.7h5v12h1.9
	v-12h5v-1.7H184.5z M166.4,12.3h5v12h1.9v-12h4.8v-1.7h-11.7V12.3z"/>
<path id="path7804" inkscape:connector-curvature="0" class="st0" d="M121.7,16.9h-7.2v-6.3h-1.9v13.7h1.9v-5.7h7.2v5.7h1.9V10.6
	h-1.9V16.9z"/>
</svg>
