<?xml version="1.0" encoding="utf-8"?>
<!-- Generator: Adobe Illustrator 27.3.0, SVG Export Plug-In . SVG Version: 6.00 Build 0)  -->
<svg version="1.1" id="Layer_1" xmlns="http://www.w3.org/2000/svg" xmlns:xlink="http://www.w3.org/1999/xlink" x="0px" y="0px"
	 viewBox="0 0 199.8 54.1" style="enable-background:new 0 0 199.8 54.1;" xml:space="preserve">
<style type="text/css">
	.st0{fill:#BD2238;}
	.st1{fill:#FFFFFF;}
</style>
<path id="path7782" class="st0" d="M199.8,35H0V0h199.8V35z"/>
<path id="path7784" class="st1" d="M101.5,31h0.9V3.8h-0.9V31z"/>
<path id="path7796" class="st1" d="M46.2,19.2l2.2-4.8l2.1,4.8H46.2z M42,24.4h1.8l1.4-3.2h6l1.4,3.2h2l-6.4-14L42,24.4z M34.4,14.9
	L34.4,14.9c0-3-2.1-4.1-5.7-4.1h-4.1v13.5h1.9V12.5h2.2c2.8,0,3.8,0.5,3.8,2.4v0c0,1.9-1,2.4-3.8,2.4h-1.3l5.7,7h2.4
	c0,0-4.7-5.5-4.6-5.5C33.1,18.5,34.4,17.3,34.4,14.9 M3.5,17.6c0,4.1,2.8,6.8,7.2,6.8h4.9v-7h-1.9v5.3h-2.9c-3.7,0-5.4-2.1-5.4-5.1
	c0-3,1.7-5.1,5.4-5.1h4.8v-1.7h-4.9C6.3,10.8,3.5,13.5,3.5,17.6 M70.7,20.2l-9-9.8v13.9h1.8V15l9,9.8V10.9h-1.8V20.2z M84.6,22.7
	h-2.1V12.5h2.1c3.7,0,5.4,2.1,5.4,5.1C90.1,20.6,88.3,22.7,84.6,22.7 M84.8,10.8h-4.1v13.5h4.1c4.4,0,7.2-2.7,7.2-6.8
	C92,13.5,89.2,10.8,84.8,10.8"/>
<path id="path7800" class="st1" d="M152.1,19.2l2.5-5l2.5,5H152.1z M147.7,24.2h1.9l1.5-3.1h6.9l1.5,3.1h2l-6.9-14.1L147.7,24.2z
	 M137.1,17.5l-4.5-6.9h-2.1l5.6,8.9v4.7h1.9v-4.8l5.5-8.9h-2.1L137.1,17.5z M184.4,10.6v1.7h5v12h1.9v-12h5v-1.7H184.4z M166.3,12.2
	h5v12h1.9v-12h4.8v-1.7h-11.7V12.2z"/>
<path id="path7804" class="st1" d="M121.6,16.9h-7.2v-6.3h-1.9v13.6h1.9v-5.7h7.2v5.7h1.9V10.6h-1.9V16.9z"/>
<polygon class="st0" points="99.9,35 111,35 105.4,44.6 99.9,54.1 94.4,44.6 88.8,35 "/>
</svg>
